<svg width="2880" height="1024" fill="#fff" xmlns="http://www.w3.org/2000/svg"><path fill-rule="evenodd" clip-rule="evenodd" d="M1186 770h-1.4c.6 0 1 .5 1.6.6h.4l-.7-.7zm.2.6c-6 .1-21 3.2-36.8 3.2-49.9 0-67.2-23-67.2-53.2V520.3H1184c5.8 0 10.2-5 10.2-12.1V399.4c0-5.8-5-11-10.2-11h-101.8v-135c0-5-3.2-8.3-9-8.3H935c-5.7 0-9 3.2-9 8.3v139s-69.7 17.2-74.2 17.8a11 11 0 0 0-8.3 11v87c0 7 5.1 12.1 10.9 12.1h71v210c0 156.1 108.8 172.1 183 172.1 34 0 75-10.9 81.4-14 3.8-1.4 5.7-5.8 5.7-10.3v-96c0-6.3-4.3-10.6-9.3-11.5zm1516.5-140.8c0-115.9-46.7-131.2-96-126.1-38.4 2.5-69.1 21.7-69.1 21.7v225.3s31.4 21.8 78 23c66 2 87.1-21.7 87.1-144zm155.5-10.3c0 219.5-71 282.3-195.2 282.3-105 0-161.2-53.2-161.2-53.2s-2.6 29.5-5.8 33.3c-2 3.9-5.1 5.1-9 5.1h-94.7c-6.4 0-12.1-5-12.1-10.8l1.2-711c0-5.8 5.2-11 11-11h136.2c5.8 0 11 5.2 11 11v241.2s52.4-34 129.2-34l-.6-1.2c76.8 0 190 28.8 190 248.3zm-558-231H2165.8c-7 0-11 5.1-11 12.1v348.2s-35.1 25-83.1 25c-48 0-62.1-21.8-62.1-69.8V400c0-5.8-5.1-10.9-10.9-10.9h-137c-5.7 0-10.8 5.1-10.8 11v327c0 140.7 78.7 176 186.9 176 89 0 161.2-49.3 161.2-49.3s3.2 25 5.2 28.8c1.2 3.2 5.7 5.7 10.2 5.7h85.8c7 0 10.8-5 10.8-10.9l1.3-478c0-5.8-5.1-11-12.1-11zm-1516.8-.7H647c-5.7 0-10.8 5.8-10.8 12.8v469.8c0 12.8 8.3 17.3 19.2 17.3h122.8c12.8 0 16-5.8 16-17.3V398.7c0-5.7-5-10.9-10.8-10.9zm-67.2-216.3c-49.3 0-88.4 39-88.4 88.3a87.7 87.7 0 1 0 175.4 0c0-49.2-39-88.3-87-88.3zm1055.3-16h-135c-5.8 0-10.9 5.1-10.9 11v261.7h-211.8V166.4c0-5.8-5.2-10.9-11-10.9h-136.2c-5.8 0-11 5.1-11 11v711c0 5.7 5.8 10.8 11 10.8h136.3c5.7 0 10.9-5 10.9-10.9v-304h211.8l-1.3 304c0 5.8 5.1 11 10.9 11h136.3c5.8 0 10.9-5.2 10.9-11v-711c0-5.8-5.1-10.9-10.9-10.9zm-1207.7 315v367.3c0 2.5-.6 7-3.8 8.3 0 0-80 57-211.8 57C188.8 903 0 853 0 524c0-328.9 165.1-396.7 326.4-396 139.5 0 195.8 31.3 204.8 37 2.6 3.2 3.8 5.8 3.8 9l-26.8 114c0 5.7-5.8 12.7-12.8 10.8-23-7-57.6-21.1-139-21.1-94 0-195.1 26.8-195.1 238.7 0 211.8 96 236.8 165.1 236.8 58.9 0 80-7 80-7V599h-94c-7.1 0-12.2-5-12.2-10.8V470.4c0-5.8 5-10.9 12.1-10.9h239.4c7 0 12.1 5.1 12.1 11z"/></svg>